<?xml version="1.0" encoding="UTF-8" standalone="no"?><!DOCTYPE svg PUBLIC "-//W3C//DTD SVG 1.1//EN" "http://www.w3.org/Graphics/SVG/1.1/DTD/svg11.dtd"><svg width="100%" height="100%" viewBox="0 0 296 137" version="1.1" xmlns="http://www.w3.org/2000/svg" xmlns:xlink="http://www.w3.org/1999/xlink" xml:space="preserve" xmlns:serif="http://www.serif.com/" style="fill-rule:evenodd;clip-rule:evenodd;stroke-linejoin:round;stroke-miterlimit:2;"><rect id="Artboard1" x="0" y="0" width="295.943" height="136.757" style="fill:none;"/><clipPath id="_clip1"><rect x="0" y="0" width="295.943" height="136.757"/></clipPath><g clip-path="url(#_clip1)"><g><g><path d="M73.641,3.404c0.06,0.197 0.118,0.394 0.183,0.589c0.024,0.071 0.048,0.142 0.073,0.212c0.006,0.015 0.054,0.125 0.074,0.176c0.065,0.131 0.135,0.259 0.214,0.383c0.017,0.023 0.038,0.05 0.062,0.077c0.032,0.036 0.062,0.062 0.081,0.079c0.049,0.029 0.097,0.057 0.147,0.084c0.014,0.003 0.03,0.007 0.054,0.013c0.186,0.049 0.369,0.104 0.557,0.146c0.389,0.086 0.771,0.184 1.152,0.285c0.201,-1.161 0.375,-2.309 0.544,-3.349c-0,-0.265 0.03,-0.38 -0.005,-0.47c-0.174,-0.451 -0.322,-1.242 -0.559,-1.272c-0.53,-0.067 -1.259,0.088 -1.634,0.442c-0.497,0.469 -0.928,1.033 -1.3,1.626c0.134,0.32 0.255,0.645 0.357,0.979" style="fill:#ffffff;fill-rule:nonzero;"/><path d="M52.71,86.934l0.128,0.379l-0.033,0.399c-0.077,0.931 -0.133,1.839 -0.189,2.728c-0.124,1.996 -0.242,3.881 -0.559,5.795c-1.077,6.492 -4.459,11.135 -10.052,13.799c-0.135,0.065 -0.261,0.125 -0.382,0.183c1.777,2.776 3.529,5.569 5.308,8.345c0.8,1.247 1.399,2.53 1.343,4.072c-0.052,1.401 0.351,2.748 1.344,3.723c0.992,0.975 1.165,2.07 1.263,3.362c0.163,2.149 1.175,2.936 3.324,2.731c0.81,-0.078 1.632,-0.361 2.377,-0.705c1.515,-0.699 1.951,-1.872 0.986,-3.299c-1.336,-1.975 -1.967,-4.085 -2.055,-6.429c-0.049,-1.307 -0.543,-2.483 -1.712,-3.165c-2.251,-1.315 -3.107,-3.533 -3.952,-5.787c-0.585,-1.561 -0.476,-3.077 0.301,-4.521c0.64,-1.189 1.326,-2.36 2.08,-3.48c2.511,-3.732 3.827,-7.855 3.861,-12.328c0.026,-3.368 -0.034,-6.798 -1.574,-9.86c-1.805,1.722 -2.247,2.754 -1.807,4.058" style="fill:#ffffff;fill-rule:nonzero;"/><path d="M85.283,63.773c0.015,-2.048 1.322,-3.36 2.282,-4.277c0.034,-0.142 0.071,-0.283 0.107,-0.424c-0.335,-1.054 -1.073,-1.959 -2.125,-2.581l-0.408,0.157c-1.462,0.556 -2.859,1.403 -4.337,2.3c-0.283,0.171 -0.574,0.504 -0.741,0.829c-0.295,0.572 -0.611,1.121 -0.936,1.66c0.857,0.542 0.595,1.637 -0.376,3.942c-0.541,1.286 -1.139,2.446 -2.7,2.731c-0.912,0.167 -1.361,0.878 -1.677,1.687c-0.273,0.698 -0.614,1.348 -1.49,1.388c-1.464,0.066 -2.648,0.619 -3.243,2.018c-0.523,1.231 -1.022,2.485 -1.366,3.773c-0.202,0.753 0.514,1.534 1.271,1.385c1.094,-0.215 2.212,-0.542 3.186,-1.068c1.373,-0.742 2.599,-1.658 4.334,-1.278c0.506,0.111 1.194,-0.291 1.708,-0.605c1.375,-0.842 2.398,-2.042 2.79,-3.613c0.144,-0.577 0.375,-1.088 0.651,-1.57c0.019,-0.65 0.062,-1.322 0.157,-2c0.36,-2.575 1.769,-3.841 2.913,-4.454" style="fill:#ffffff;fill-rule:nonzero;"/><path d="M50.876,87.553c-0.245,2.973 -0.286,5.703 -0.728,8.366c-0.924,5.567 -3.726,9.868 -8.975,12.369c-3.269,1.557 -3.72,2.555 -2.887,6.214c0.322,1.419 0.64,2.869 1.212,4.196c0.525,1.214 1.216,2.461 2.148,3.371c1.289,1.261 2.105,2.599 1.91,4.395c-0.184,1.683 0.434,3.027 1.396,4.337c0.8,1.089 1.502,2.259 2.146,3.449c0.562,1.035 0.251,1.803 -0.849,2.237c-0.568,0.225 -1.202,0.392 -1.807,0.394c-1.037,0.005 -2.087,-0.065 -3.11,-0.235c-3.129,-0.519 -3.316,-0.7 -3.562,-3.998c-0.083,-1.12 -0.425,-2.008 -1.236,-2.752c-1.168,-1.073 -1.615,-2.448 -1.384,-3.972c0.334,-2.2 -0.358,-4.127 -1.407,-5.965c-0.775,-1.356 -1.718,-2.617 -2.464,-3.987c-0.742,-1.363 -1.422,-2.774 -1.963,-4.226c-0.676,-1.817 -0.284,-3.49 1.104,-4.89c0.441,-0.445 0.869,-0.902 1.326,-1.329c2.793,-2.604 3.283,-5.237 1.5,-9.391c-0.609,-1.419 -1.5,-2.765 -2.481,-3.965c-3.508,-4.29 -5.497,-9.061 -5.053,-14.69c0.017,-0.208 0.032,-0.418 0.022,-0.625c-0.046,-0.959 -0.438,-1.325 -1.361,-1.227c-2.034,0.216 -3.471,1.371 -4.477,3.054c-1.091,1.826 -1.579,3.84 -1.568,5.978c0.013,2.535 0.493,4.999 1.397,7.337c1.54,3.983 1.875,8.094 1.687,12.296c-0.04,0.895 -0.039,1.799 -1.394,1.192c-0.1,-0.045 -0.497,0.303 -0.575,0.53c-0.236,0.686 -0.379,1.404 -0.565,2.108c-0.947,3.564 -2.963,6.423 -5.881,8.621c-0.897,0.675 -1.962,1.182 -3.021,1.573c-1.143,0.421 -1.637,0.225 -2.186,-1c-0.357,-0.796 -0.61,-0.921 -1.335,-0.53c-1.005,0.543 -2.028,1.078 -3.095,1.476c-0.764,0.286 -1.609,0.382 -2.428,0.476c-0.247,0.029 -0.661,-0.169 -0.753,-0.374c-0.086,-0.192 0.071,-0.618 0.259,-0.79c1.149,-1.047 2.344,-2.043 3.493,-3.09c0.063,-0.057 -0.108,-0.569 -0.246,-0.61c-0.28,-0.081 -0.611,0.032 -0.922,0.036c-0.513,0.006 -1.048,0.077 -1.531,-0.046c-0.352,-0.091 -0.812,-0.401 -0.897,-0.705c-0.084,-0.301 0.147,-0.817 0.406,-1.063c1.351,-1.289 2.778,-2.5 4.133,-3.785c0.722,-0.684 0.927,-1.36 -0.266,-1.868c-0.732,-0.311 -0.822,-0.949 -0.31,-1.52c3.391,-3.785 3.693,-8.476 3.889,-13.193c0.02,-0.484 -0.083,-1.329 -0.329,-1.411c-1.766,-0.595 -1.264,-1.825 -1.067,-3.07c0.325,-2.055 0.436,-4.149 0.836,-6.187c1.612,-8.212 8.468,-12.686 16.706,-10.969c0.51,0.106 1.036,0.204 1.506,0.414c1.055,0.473 1.697,0.185 2.307,-0.807c1.521,-2.474 3.959,-3.934 6.316,-5.486c2.868,-1.89 5.709,-3.824 8.507,-5.816c1.011,-0.72 1.826,-1.71 2.798,-2.491c1.502,-1.208 2.072,-2.645 1.922,-4.622c-0.115,-1.52 0.358,-3.086 0.586,-4.629c0.126,-0.857 0.075,-1.527 -0.715,-2.195c-1.101,-0.93 -1.124,-1.309 -0.232,-2.297c2.02,-2.24 3.251,-4.847 3.815,-7.761c0.396,-2.042 0.599,-4.12 0.893,-6.181c0.111,-0.775 -0.208,-0.987 -0.989,-1.171c-1.684,-0.396 -1.925,-0.995 -0.844,-2.346c1.363,-1.702 1.866,-3.682 2.432,-5.694c0.59,-2.099 1.098,-4.271 2.052,-6.209c2.375,-4.82 6.152,-7.825 11.741,-8.019c1.101,-0.039 1.681,-0.444 2.018,-1.517c0.274,-0.874 0.756,-1.729 1.331,-2.444c0.33,-0.411 1.025,-0.685 1.564,-0.7c0.232,-0.007 0.594,0.771 0.711,1.239c0.252,1.006 0.376,2.044 0.564,3.067c0.166,0.894 0.621,1.39 1.585,1.658c3.636,1.009 6.105,3.492 7.843,6.72c0.955,1.773 2.133,3.316 3.632,4.651c1.168,1.039 2.25,2.173 3.393,3.241c1.879,1.757 1.422,4.317 0.093,5.94c-1.696,2.073 -4.783,2.602 -7.065,1.164c-0.877,-0.553 -1.599,-1.349 -2.475,-1.904c-0.682,-0.432 -1.468,-0.766 -2.253,-0.953c-0.895,-0.214 -1.424,0.224 -1.419,1.156c0.022,4.443 0.571,8.744 3.556,12.345c1.607,1.94 3.112,3.946 3.267,6.608c0.049,0.854 0.542,1.324 1.31,1.543c2.327,0.662 4.654,1.013 7.087,0.45c3.333,-0.772 5.26,0.726 5.317,4.121c0.019,1.122 -0.21,2.278 -0.512,3.367c-0.669,2.415 -1.294,4.816 -1.377,7.35c-0.036,1.124 -0.4,2.249 -0.704,3.348c-0.382,1.381 -1.194,2.436 -2.632,2.856c-1.285,0.376 -2.05,1.312 -2.844,2.314c-0.765,0.966 -1.69,1.831 -2.655,2.602c-0.659,0.527 -1.57,0.066 -1.6,-0.777c-0.044,-1.244 -0.048,-2.506 0.124,-3.734c0.176,-1.258 0.696,-2.385 1.949,-3.037c0.43,-0.223 1.096,-0.746 1.045,-1.016c-0.332,-1.75 0.751,-2.715 1.815,-3.733c0.144,-0.137 0.253,-0.347 0.299,-0.542c0.467,-2.008 1.255,-3.998 0.428,-6.097c-1.926,-0.73 -3.677,0.127 -5.369,0.768c-1.643,0.623 -3.179,1.559 -4.691,2.475c-0.583,0.354 -1.106,0.964 -1.422,1.577c-2.966,5.751 -7.704,9.773 -12.894,13.367c-2.657,1.84 -5.333,3.654 -7.944,5.557c-1.344,0.979 -2.601,2.088 -3.834,3.207c-1.996,1.811 -3.724,3.771 -2.793,6.531" style="fill:#ffffff;fill-rule:nonzero;"/></g><g><path d="M56.984,118.853l11.362,-35.774l8.809,0.041l-4.553,14.334l4.816,0.023l16.58,-14.278l9.902,0.047l-19.961,16.928l8.836,18.847l-10.331,-0.049l-7.073,-15.048l-4.816,-0.023l-4.762,14.993l-8.809,-0.041Z" style="fill:#ffffff;fill-rule:nonzero;"/><path d="M116.93,119.551c-3.425,-0.017 -6.185,-0.2 -8.278,-0.55c-2.093,-0.351 -3.644,-0.933 -4.654,-1.747c-1.01,-0.814 -1.593,-1.916 -1.749,-3.305c-0.156,-1.39 0.025,-3.136 0.542,-5.241c0.518,-2.104 1.239,-4.614 2.165,-7.528c0.925,-2.914 1.798,-5.422 2.617,-7.525c0.819,-2.103 1.747,-3.849 2.786,-5.238c1.038,-1.39 2.32,-2.488 3.845,-3.296c1.524,-0.807 3.444,-1.376 5.758,-1.706c2.315,-0.33 5.182,-0.487 8.602,-0.471c3.421,0.016 6.18,0.2 8.279,0.55c2.098,0.351 3.645,0.936 4.641,1.755c0.996,0.819 1.565,1.927 1.707,3.321c0.143,1.395 -0.044,3.145 -0.562,5.249c-0.517,2.105 -1.238,4.614 -2.164,7.528c-0.925,2.914 -1.798,5.422 -2.617,7.525c-0.819,2.103 -1.741,3.847 -2.766,5.231c-1.025,1.383 -2.292,2.477 -3.801,3.279c-1.508,0.802 -3.421,1.368 -5.739,1.698c-2.317,0.33 -5.188,0.487 -8.612,0.471Zm2.117,-6.642c1.745,0.008 3.184,-0.038 4.318,-0.138c1.133,-0.1 2.074,-0.336 2.821,-0.708c0.747,-0.373 1.4,-0.976 1.959,-1.81c0.559,-0.834 1.103,-1.973 1.632,-3.415c0.529,-1.442 1.15,-3.286 1.863,-5.533c0.717,-2.257 1.268,-4.104 1.654,-5.541c0.386,-1.438 0.566,-2.578 0.539,-3.42c-0.026,-0.842 -0.293,-1.455 -0.8,-1.839c-0.507,-0.384 -1.296,-0.631 -2.366,-0.741c-1.071,-0.11 -2.481,-0.17 -4.229,-0.178c-1.715,-0.008 -3.144,0.038 -4.286,0.138c-1.143,0.1 -2.094,0.337 -2.854,0.712c-0.76,0.375 -1.421,0.984 -1.983,1.826c-0.561,0.843 -1.112,1.982 -1.65,3.419c-0.539,1.437 -1.167,3.284 -1.884,5.541c-0.714,2.246 -1.258,4.091 -1.634,5.534c-0.376,1.443 -0.55,2.584 -0.522,3.423c0.027,0.84 0.302,1.448 0.823,1.823c0.522,0.376 1.322,0.619 2.401,0.729c1.079,0.11 2.479,0.17 4.198,0.178Z" style="fill:#ffffff;fill-rule:nonzero;"/><path d="M162.597,119.764c-3.062,-0.014 -5.576,-0.196 -7.542,-0.546c-1.966,-0.35 -3.472,-0.932 -4.516,-1.746c-1.044,-0.814 -1.683,-1.919 -1.918,-3.314c-0.235,-1.395 -0.14,-3.145 0.285,-5.25c0.425,-2.105 1.101,-4.614 2.026,-7.528c0.933,-2.938 1.852,-5.456 2.756,-7.553c0.904,-2.097 1.916,-3.84 3.035,-5.229c1.119,-1.389 2.45,-2.481 3.994,-3.277c1.543,-0.795 3.412,-1.358 5.606,-1.689c2.194,-0.33 4.828,-0.488 7.9,-0.474c1.179,0.006 2.406,0.049 3.681,0.13c1.274,0.081 2.495,0.196 3.661,0.346c1.166,0.149 2.176,0.319 3.029,0.507l-1.99,6.265c-1.189,-0.145 -2.305,-0.254 -3.347,-0.328c-1.043,-0.075 -1.968,-0.137 -2.776,-0.187c-0.809,-0.051 -1.505,-0.077 -2.091,-0.08c-2.041,-0.01 -3.756,0.046 -5.145,0.168c-1.389,0.121 -2.54,0.387 -3.454,0.796c-0.914,0.409 -1.693,1.037 -2.337,1.884c-0.644,0.847 -1.246,1.978 -1.807,3.392c-0.561,1.414 -1.185,3.204 -1.873,5.37c-0.688,2.166 -1.202,3.959 -1.541,5.38c-0.339,1.42 -0.456,2.553 -0.35,3.398c0.106,0.846 0.485,1.477 1.137,1.893c0.652,0.416 1.632,0.692 2.939,0.826c1.308,0.134 2.983,0.206 5.024,0.215c1.358,0.007 2.858,-0.038 4.5,-0.135c1.641,-0.096 3.084,-0.223 4.327,-0.38l-2.049,6.453c-0.982,0.135 -2.114,0.254 -3.397,0.357c-1.282,0.104 -2.601,0.187 -3.955,0.25c-1.354,0.063 -2.625,0.092 -3.812,0.086Z" style="fill:#ffffff;fill-rule:nonzero;"/><path d="M184.618,119.451l11.363,-35.774l8.808,0.041l-4.535,14.278l16.298,0.077l4.535,-14.279l8.737,0.041l-11.362,35.775l-8.737,-0.041l4.575,-14.405l-16.298,-0.077l-4.575,14.405l-8.809,-0.041Z" style="fill:#ffffff;fill-rule:nonzero;"/><path d="M227.214,119.651l25.665,-35.708l11.499,0.054l2.904,35.841l-9.118,-0.042l-0.579,-7.561l-16.244,-0.076l-5.429,7.532l-8.698,-0.04Zm18.512,-13.928l11.553,0.054l-0.75,-14.781l-0.557,-0.002l-10.246,14.729Z" style="fill:#ffffff;fill-rule:nonzero;"/><path d="M275.927,119.879l11.362,-35.774l8.809,0.041l-11.363,35.774l-8.808,-0.041Z" style="fill:#ffffff;fill-rule:nonzero;"/></g></g></g></svg>